<mxfile host="app.diagrams.net" agent="Mozilla/5.0 (Windows NT 10.0; Win64; x64) AppleWebKit/537.36 (KHTML, like Gecko) Chrome/129.0.0.0 Safari/537.36" version="24.7.16">
  <diagram name="Сторінка-1" id="9pYZpQxjizfrRa01tSeq">
    <mxGraphModel dx="1058" dy="915" grid="1" gridSize="10" guides="1" tooltips="1" connect="1" arrows="1" fold="1" page="1" pageScale="1" pageWidth="827" pageHeight="1169" math="0" shadow="0">
      <root>
        <mxCell id="0" />
        <mxCell id="1" parent="0" />
        <mxCell id="JDw_6_uzMgOXpV5D64YW-3" value="" style="edgeStyle=orthogonalEdgeStyle;rounded=0;orthogonalLoop=1;jettySize=auto;html=1;endArrow=none;endFill=0;" parent="1" source="JDw_6_uzMgOXpV5D64YW-1" edge="1">
          <mxGeometry relative="1" as="geometry">
            <mxPoint x="440" y="150" as="targetPoint" />
          </mxGeometry>
        </mxCell>
        <mxCell id="JDw_6_uzMgOXpV5D64YW-1" value="Початок&amp;nbsp;" style="rounded=1;whiteSpace=wrap;html=1;" parent="1" vertex="1">
          <mxGeometry x="390" y="90" width="100" height="40" as="geometry" />
        </mxCell>
        <mxCell id="JZwJezfRS7TkY8acrbSy-3" value="" style="edgeStyle=orthogonalEdgeStyle;shape=connector;rounded=0;orthogonalLoop=1;jettySize=auto;html=1;strokeColor=default;align=center;verticalAlign=middle;fontFamily=Helvetica;fontSize=11;fontColor=default;labelBackgroundColor=default;endArrow=none;endFill=0;" edge="1" parent="1" source="JDw_6_uzMgOXpV5D64YW-4">
          <mxGeometry relative="1" as="geometry">
            <mxPoint x="440" y="250" as="targetPoint" />
          </mxGeometry>
        </mxCell>
        <mxCell id="JDw_6_uzMgOXpV5D64YW-4" value="xp,xk,dx" style="shape=parallelogram;perimeter=parallelogramPerimeter;whiteSpace=wrap;html=1;fixedSize=1;" parent="1" vertex="1">
          <mxGeometry x="380" y="150" width="120" height="60" as="geometry" />
        </mxCell>
        <mxCell id="JDw_6_uzMgOXpV5D64YW-12" value="" style="edgeStyle=orthogonalEdgeStyle;shape=connector;rounded=0;orthogonalLoop=1;jettySize=auto;html=1;strokeColor=default;align=center;verticalAlign=middle;fontFamily=Helvetica;fontSize=11;fontColor=default;labelBackgroundColor=default;endArrow=none;endFill=0;" parent="1" source="JDw_6_uzMgOXpV5D64YW-9" edge="1">
          <mxGeometry relative="1" as="geometry">
            <Array as="points">
              <mxPoint x="560" y="450" />
            </Array>
            <mxPoint x="560.0588235294117" y="500" as="targetPoint" />
          </mxGeometry>
        </mxCell>
        <mxCell id="JDw_6_uzMgOXpV5D64YW-18" value="" style="edgeStyle=orthogonalEdgeStyle;shape=connector;rounded=0;orthogonalLoop=1;jettySize=auto;html=1;strokeColor=default;align=center;verticalAlign=middle;fontFamily=Helvetica;fontSize=11;fontColor=default;labelBackgroundColor=default;endArrow=none;endFill=0;entryX=0.5;entryY=0;entryDx=0;entryDy=0;" parent="1" source="JDw_6_uzMgOXpV5D64YW-9" target="JZwJezfRS7TkY8acrbSy-34" edge="1">
          <mxGeometry relative="1" as="geometry">
            <mxPoint x="315" y="1210" as="targetPoint" />
            <Array as="points">
              <mxPoint x="160" y="450" />
              <mxPoint x="160" y="1020" />
              <mxPoint x="315" y="1020" />
              <mxPoint x="315" y="1100" />
              <mxPoint x="310" y="1100" />
            </Array>
          </mxGeometry>
        </mxCell>
        <mxCell id="JDw_6_uzMgOXpV5D64YW-9" value="x &amp;lt;=xk" style="rhombus;whiteSpace=wrap;html=1;" parent="1" vertex="1">
          <mxGeometry x="370" y="410" width="140" height="80" as="geometry" />
        </mxCell>
        <mxCell id="JDw_6_uzMgOXpV5D64YW-15" value="+" style="text;html=1;align=center;verticalAlign=middle;resizable=0;points=[];autosize=1;strokeColor=none;fillColor=none;fontFamily=Helvetica;fontSize=11;fontColor=default;labelBackgroundColor=default;" parent="1" vertex="1">
          <mxGeometry x="520" y="420" width="30" height="30" as="geometry" />
        </mxCell>
        <mxCell id="JDw_6_uzMgOXpV5D64YW-19" value="-" style="text;html=1;align=center;verticalAlign=middle;resizable=0;points=[];autosize=1;strokeColor=none;fillColor=none;fontFamily=Helvetica;fontSize=11;fontColor=default;labelBackgroundColor=default;" parent="1" vertex="1">
          <mxGeometry x="300" y="420" width="30" height="30" as="geometry" />
        </mxCell>
        <mxCell id="JDw_6_uzMgOXpV5D64YW-33" value="" style="edgeStyle=orthogonalEdgeStyle;shape=connector;rounded=0;orthogonalLoop=1;jettySize=auto;html=1;strokeColor=default;align=center;verticalAlign=middle;fontFamily=Helvetica;fontSize=11;fontColor=default;labelBackgroundColor=default;endArrow=none;endFill=0;" parent="1" target="JDw_6_uzMgOXpV5D64YW-32" edge="1">
          <mxGeometry relative="1" as="geometry">
            <mxPoint x="440.0434782608696" y="890" as="sourcePoint" />
          </mxGeometry>
        </mxCell>
        <mxCell id="JZwJezfRS7TkY8acrbSy-32" value="" style="edgeStyle=orthogonalEdgeStyle;shape=connector;rounded=0;orthogonalLoop=1;jettySize=auto;html=1;strokeColor=default;align=center;verticalAlign=middle;fontFamily=Helvetica;fontSize=11;fontColor=default;labelBackgroundColor=default;endArrow=none;endFill=0;" edge="1" parent="1" source="JDw_6_uzMgOXpV5D64YW-32" target="JZwJezfRS7TkY8acrbSy-30">
          <mxGeometry relative="1" as="geometry" />
        </mxCell>
        <mxCell id="JDw_6_uzMgOXpV5D64YW-32" value="x , y" style="shape=document;whiteSpace=wrap;html=1;boundedLbl=1;fontFamily=Helvetica;fontSize=18;fontColor=default;labelBackgroundColor=default;size=0.2857142857142825;" parent="1" vertex="1">
          <mxGeometry x="380" y="890" width="120" height="70" as="geometry" />
        </mxCell>
        <mxCell id="JDw_6_uzMgOXpV5D64YW-34" value="Кінець" style="whiteSpace=wrap;html=1;fontSize=18;labelBackgroundColor=default;rounded=1;arcSize=36;align=center;" parent="1" vertex="1">
          <mxGeometry x="250" y="1170" width="120" height="60" as="geometry" />
        </mxCell>
        <mxCell id="JZwJezfRS7TkY8acrbSy-5" value="" style="edgeStyle=orthogonalEdgeStyle;shape=connector;rounded=0;orthogonalLoop=1;jettySize=auto;html=1;strokeColor=default;align=center;verticalAlign=middle;fontFamily=Helvetica;fontSize=11;fontColor=default;labelBackgroundColor=default;endArrow=none;endFill=0;" edge="1" parent="1" source="JZwJezfRS7TkY8acrbSy-1">
          <mxGeometry relative="1" as="geometry">
            <mxPoint x="440" y="330" as="targetPoint" />
          </mxGeometry>
        </mxCell>
        <mxCell id="JZwJezfRS7TkY8acrbSy-1" value="ввід заголовку" style="shape=parallelogram;perimeter=parallelogramPerimeter;whiteSpace=wrap;html=1;fixedSize=1;" vertex="1" parent="1">
          <mxGeometry x="380" y="230" width="120" height="60" as="geometry" />
        </mxCell>
        <mxCell id="JZwJezfRS7TkY8acrbSy-6" value="" style="edgeStyle=orthogonalEdgeStyle;shape=connector;rounded=0;orthogonalLoop=1;jettySize=auto;html=1;strokeColor=default;align=center;verticalAlign=middle;fontFamily=Helvetica;fontSize=11;fontColor=default;labelBackgroundColor=default;endArrow=none;endFill=0;" edge="1" parent="1" source="JZwJezfRS7TkY8acrbSy-4" target="JDw_6_uzMgOXpV5D64YW-9">
          <mxGeometry relative="1" as="geometry" />
        </mxCell>
        <mxCell id="JZwJezfRS7TkY8acrbSy-4" value="x = xp" style="whiteSpace=wrap;html=1;" vertex="1" parent="1">
          <mxGeometry x="380" y="310" width="120" height="60" as="geometry" />
        </mxCell>
        <mxCell id="JZwJezfRS7TkY8acrbSy-10" value="" style="edgeStyle=orthogonalEdgeStyle;shape=connector;rounded=0;orthogonalLoop=1;jettySize=auto;html=1;strokeColor=default;align=center;verticalAlign=middle;fontFamily=Helvetica;fontSize=11;fontColor=default;labelBackgroundColor=default;endArrow=none;endFill=0;" edge="1" parent="1" source="JZwJezfRS7TkY8acrbSy-8" target="JZwJezfRS7TkY8acrbSy-9">
          <mxGeometry relative="1" as="geometry">
            <Array as="points">
              <mxPoint x="670" y="540" />
            </Array>
          </mxGeometry>
        </mxCell>
        <mxCell id="JZwJezfRS7TkY8acrbSy-12" value="" style="edgeStyle=orthogonalEdgeStyle;shape=connector;rounded=0;orthogonalLoop=1;jettySize=auto;html=1;strokeColor=default;align=center;verticalAlign=middle;fontFamily=Helvetica;fontSize=11;fontColor=default;labelBackgroundColor=default;endArrow=none;endFill=0;entryX=0.5;entryY=0;entryDx=0;entryDy=0;" edge="1" parent="1" source="JZwJezfRS7TkY8acrbSy-8" target="JZwJezfRS7TkY8acrbSy-11">
          <mxGeometry relative="1" as="geometry">
            <Array as="points">
              <mxPoint x="380" y="540" />
            </Array>
          </mxGeometry>
        </mxCell>
        <mxCell id="JZwJezfRS7TkY8acrbSy-8" value="x &amp;lt; 1" style="rhombus;whiteSpace=wrap;html=1;" vertex="1" parent="1">
          <mxGeometry x="490" y="500" width="140" height="80" as="geometry" />
        </mxCell>
        <mxCell id="JZwJezfRS7TkY8acrbSy-9" value="&lt;span style=&quot;font-size: 9.5pt; line-height: 106%; font-family: &amp;quot;Cascadia Mono&amp;quot;; background: white;&quot;&gt;B =&amp;nbsp;&lt;/span&gt;&lt;span style=&quot;font-size: 9.5pt; line-height: 106%; font-family: &amp;quot;Cascadia Mono&amp;quot;; background: white;&quot;&gt;7x&lt;sup&gt;2&lt;/sup&gt; + x - 8&lt;/span&gt;" style="whiteSpace=wrap;html=1;" vertex="1" parent="1">
          <mxGeometry x="610" y="590" width="120" height="60" as="geometry" />
        </mxCell>
        <mxCell id="JZwJezfRS7TkY8acrbSy-17" style="edgeStyle=orthogonalEdgeStyle;shape=connector;rounded=0;orthogonalLoop=1;jettySize=auto;html=1;entryX=0.5;entryY=0;entryDx=0;entryDy=0;strokeColor=default;align=center;verticalAlign=middle;fontFamily=Helvetica;fontSize=11;fontColor=default;labelBackgroundColor=default;endArrow=none;endFill=0;" edge="1" parent="1" source="JZwJezfRS7TkY8acrbSy-11" target="JZwJezfRS7TkY8acrbSy-16">
          <mxGeometry relative="1" as="geometry">
            <Array as="points">
              <mxPoint x="520" y="618" />
            </Array>
          </mxGeometry>
        </mxCell>
        <mxCell id="JZwJezfRS7TkY8acrbSy-22" style="edgeStyle=orthogonalEdgeStyle;shape=connector;rounded=0;orthogonalLoop=1;jettySize=auto;html=1;entryX=0.5;entryY=0;entryDx=0;entryDy=0;strokeColor=default;align=center;verticalAlign=middle;fontFamily=Helvetica;fontSize=11;fontColor=default;labelBackgroundColor=default;endArrow=none;endFill=0;" edge="1" parent="1" source="JZwJezfRS7TkY8acrbSy-11" target="JZwJezfRS7TkY8acrbSy-21">
          <mxGeometry relative="1" as="geometry">
            <Array as="points">
              <mxPoint x="260" y="618" />
            </Array>
          </mxGeometry>
        </mxCell>
        <mxCell id="JZwJezfRS7TkY8acrbSy-11" value="x &amp;gt; 4" style="rhombus;whiteSpace=wrap;html=1;" vertex="1" parent="1">
          <mxGeometry x="310" y="580" width="140" height="75" as="geometry" />
        </mxCell>
        <mxCell id="JZwJezfRS7TkY8acrbSy-16" value="&lt;span style=&quot;font-size: 9.5pt; line-height: 106%; font-family: &amp;quot;Cascadia Mono&amp;quot;; background: white;&quot;&gt;B =&amp;nbsp;&lt;/span&gt;&lt;span style=&quot;font-size: 9.5pt; line-height: 106%; font-family: &amp;quot;Cascadia Mono&amp;quot;; background: white;&quot;&gt;sqrt(1 + fabs(&lt;/span&gt;&lt;span style=&quot;line-height: 106%; font-family: &amp;quot;Cascadia Mono&amp;quot;; background: white;&quot;&gt;&lt;span style=&quot;font-size: 10.5556px;&quot;&gt;cos&lt;/span&gt;&lt;span style=&quot;font-size: 8.79633px;&quot;&gt;3&lt;sup&gt;3&lt;/sup&gt;x&lt;/span&gt;&lt;span style=&quot;font-size: 9.5pt;&quot;&gt;))&lt;/span&gt;&lt;/span&gt;" style="whiteSpace=wrap;html=1;" vertex="1" parent="1">
          <mxGeometry x="460" y="650" width="120" height="60" as="geometry" />
        </mxCell>
        <mxCell id="JZwJezfRS7TkY8acrbSy-19" value="+" style="text;html=1;align=center;verticalAlign=middle;resizable=0;points=[];autosize=1;strokeColor=none;fillColor=none;fontSize=11;fontFamily=Helvetica;fontColor=default;labelBackgroundColor=default;" vertex="1" parent="1">
          <mxGeometry x="470" y="590" width="30" height="30" as="geometry" />
        </mxCell>
        <mxCell id="JZwJezfRS7TkY8acrbSy-20" value="+" style="text;html=1;align=center;verticalAlign=middle;resizable=0;points=[];autosize=1;strokeColor=none;fillColor=none;fontFamily=Helvetica;fontSize=11;fontColor=default;labelBackgroundColor=default;" vertex="1" parent="1">
          <mxGeometry x="640" y="510" width="30" height="30" as="geometry" />
        </mxCell>
        <mxCell id="JZwJezfRS7TkY8acrbSy-21" value="&lt;span style=&quot;font-size: 9.5pt; line-height: 106%; font-family: &amp;quot;Cascadia Mono&amp;quot;; background: white;&quot;&gt;B = (1.0 / cos(x)) * ((x + 4) / sqrt(11)) + 3&lt;/span&gt;" style="whiteSpace=wrap;html=1;" vertex="1" parent="1">
          <mxGeometry x="200" y="650" width="120" height="60" as="geometry" />
        </mxCell>
        <mxCell id="JZwJezfRS7TkY8acrbSy-23" value="-" style="text;html=1;align=center;verticalAlign=middle;resizable=0;points=[];autosize=1;strokeColor=none;fillColor=none;fontSize=11;fontFamily=Helvetica;fontColor=default;labelBackgroundColor=default;" vertex="1" parent="1">
          <mxGeometry x="269" y="591" width="30" height="30" as="geometry" />
        </mxCell>
        <mxCell id="JZwJezfRS7TkY8acrbSy-24" value="-" style="text;html=1;align=center;verticalAlign=middle;resizable=0;points=[];autosize=1;strokeColor=none;fillColor=none;fontSize=11;fontFamily=Helvetica;fontColor=default;labelBackgroundColor=default;" vertex="1" parent="1">
          <mxGeometry x="398" y="510" width="30" height="30" as="geometry" />
        </mxCell>
        <mxCell id="JZwJezfRS7TkY8acrbSy-25" value="" style="endArrow=none;html=1;rounded=0;strokeColor=default;align=center;verticalAlign=middle;fontFamily=Helvetica;fontSize=11;fontColor=default;labelBackgroundColor=default;edgeStyle=orthogonalEdgeStyle;" edge="1" parent="1">
          <mxGeometry width="50" height="50" relative="1" as="geometry">
            <mxPoint x="440" y="850" as="sourcePoint" />
            <mxPoint x="679.75" y="650" as="targetPoint" />
            <Array as="points">
              <mxPoint x="440" y="770" />
              <mxPoint x="680" y="770" />
            </Array>
          </mxGeometry>
        </mxCell>
        <mxCell id="JZwJezfRS7TkY8acrbSy-26" value="" style="endArrow=none;html=1;rounded=0;strokeColor=default;align=center;verticalAlign=middle;fontFamily=Helvetica;fontSize=11;fontColor=default;labelBackgroundColor=default;edgeStyle=orthogonalEdgeStyle;exitX=0.5;exitY=1;exitDx=0;exitDy=0;" edge="1" parent="1" source="JZwJezfRS7TkY8acrbSy-16">
          <mxGeometry width="50" height="50" relative="1" as="geometry">
            <mxPoint x="259.63" y="900" as="sourcePoint" />
            <mxPoint x="259.38" y="730" as="targetPoint" />
            <Array as="points">
              <mxPoint x="520" y="740" />
              <mxPoint x="259" y="740" />
            </Array>
          </mxGeometry>
        </mxCell>
        <mxCell id="JZwJezfRS7TkY8acrbSy-27" value="" style="endArrow=none;html=1;rounded=0;strokeColor=default;align=center;verticalAlign=middle;fontFamily=Helvetica;fontSize=11;fontColor=default;labelBackgroundColor=default;edgeStyle=orthogonalEdgeStyle;" edge="1" parent="1">
          <mxGeometry width="50" height="50" relative="1" as="geometry">
            <mxPoint x="440" y="890" as="sourcePoint" />
            <mxPoint x="380" y="740" as="targetPoint" />
            <Array as="points">
              <mxPoint x="440" y="770" />
              <mxPoint x="380" y="770" />
            </Array>
          </mxGeometry>
        </mxCell>
        <mxCell id="JZwJezfRS7TkY8acrbSy-29" value="&lt;span style=&quot;font-size: 9.5pt; line-height: 106%; font-family: &amp;quot;Cascadia Mono&amp;quot;; background-image: initial; background-position: initial; background-size: initial; background-repeat: initial; background-attachment: initial; background-origin: initial; background-clip: initial;&quot;&gt;y =&amp;nbsp;&lt;span style=&quot;font-size: 9.5pt; line-height: 106%; background-image: initial; background-position: initial; background-size: initial; background-repeat: initial; background-attachment: initial; background-origin: initial; background-clip: initial;&quot;&gt;(1 / fabs(x + 2))&lt;/span&gt;&amp;nbsp;- B;&lt;/span&gt;" style="shape=document;whiteSpace=wrap;html=1;boundedLbl=1;fontFamily=Helvetica;fontSize=11;fontColor=default;labelBackgroundColor=default;size=3.7895612573872e-15;" vertex="1" parent="1">
          <mxGeometry x="370" y="800" width="140" height="60" as="geometry" />
        </mxCell>
        <mxCell id="JZwJezfRS7TkY8acrbSy-33" style="edgeStyle=orthogonalEdgeStyle;shape=connector;rounded=0;orthogonalLoop=1;jettySize=auto;html=1;strokeColor=default;align=center;verticalAlign=middle;fontFamily=Helvetica;fontSize=11;fontColor=default;labelBackgroundColor=default;endArrow=classic;endFill=1;" edge="1" parent="1" source="JZwJezfRS7TkY8acrbSy-30">
          <mxGeometry relative="1" as="geometry">
            <mxPoint x="440" y="390" as="targetPoint" />
            <Array as="points">
              <mxPoint x="750" y="1010" />
              <mxPoint x="750" y="390" />
            </Array>
          </mxGeometry>
        </mxCell>
        <mxCell id="JZwJezfRS7TkY8acrbSy-30" value="x += dx" style="whiteSpace=wrap;html=1;fontSize=18;labelBackgroundColor=default;" vertex="1" parent="1">
          <mxGeometry x="380" y="980" width="120" height="60" as="geometry" />
        </mxCell>
        <mxCell id="JZwJezfRS7TkY8acrbSy-35" value="" style="edgeStyle=orthogonalEdgeStyle;shape=connector;rounded=0;orthogonalLoop=1;jettySize=auto;html=1;strokeColor=default;align=center;verticalAlign=middle;fontFamily=Helvetica;fontSize=11;fontColor=default;labelBackgroundColor=default;endArrow=none;endFill=0;" edge="1" parent="1" source="JZwJezfRS7TkY8acrbSy-34" target="JDw_6_uzMgOXpV5D64YW-34">
          <mxGeometry relative="1" as="geometry" />
        </mxCell>
        <mxCell id="JZwJezfRS7TkY8acrbSy-34" value="&lt;span style=&quot;font-size: 9.5pt; line-height: 106%; font-family: &amp;quot;Cascadia Mono&amp;quot;; background-image: initial; background-position: initial; background-size: initial; background-repeat: initial; background-attachment: initial; background-origin: initial; background-clip: initial;&quot;&gt;&quot;-------------&quot;&lt;/span&gt;" style="shape=document;whiteSpace=wrap;html=1;boundedLbl=1;fontFamily=Helvetica;fontSize=11;fontColor=default;labelBackgroundColor=default;" vertex="1" parent="1">
          <mxGeometry x="252.5" y="1050" width="115" height="70" as="geometry" />
        </mxCell>
      </root>
    </mxGraphModel>
  </diagram>
</mxfile>
